HIERARCHY
ROOT hip
{
	OFFSET 0.000000 0.000000 0.000000 
	CHANNELS 6 Xposition Yposition Zposition Xrotation Zrotation Yrotation
	JOINT abdomen
	{
		OFFSET 0.000000 3.402643 0.000000 
		CHANNELS 3 Xrotation Zrotation Yrotation
		JOINT chest
		{
			OFFSET 0.000000 8.438565 -0.680529 
			CHANNELS 3 Xrotation Zrotation Yrotation
			JOINT neck
			{
				OFFSET 0.000000 10.207942 -0.272212 
				CHANNELS 3 Xrotation Zrotation Yrotation
				JOINT head
				{
					OFFSET 0.000000 3.130431 0.000000 
					CHANNELS 3 Xrotation Zrotation Yrotation
					End Site
					{
						OFFSET 0.000000 3.130435 0.000000 
					}
				}
			}
			JOINT lCollar
			{
				OFFSET 3.470700 6.669187 -0.816635 
				CHANNELS 3 Yrotation Zrotation Xrotation
				JOINT lShldr
				{
					OFFSET 3.198488 0.000000 0.000000 
					CHANNELS 3 Zrotation Yrotation Xrotation
					JOINT lForeArm
					{
						OFFSET 10.139888 0.000000 0.000000 
						CHANNELS 3 Yrotation Zrotation Xrotation
						JOINT lHand
						{
							OFFSET 8.370511 0.000000 0.000000 
							CHANNELS 3 Zrotation Yrotation Xrotation
							End Site
							{
								OFFSET 4.083176 0.000000 0.000000 
							}
						}
					}
				}
			}
			JOINT rCollar
			{
				OFFSET -3.470700 6.669187 -0.816635 
				CHANNELS 3 Yrotation Zrotation Xrotation
				JOINT rShldr
				{
					OFFSET -3.198488 0.000000 0.000000 
					CHANNELS 3 Zrotation Yrotation Xrotation
					JOINT rForeArm
					{
						OFFSET -10.139888 0.000000 0.000000 
						CHANNELS 3 Yrotation Zrotation Xrotation
						JOINT rHand
						{
							OFFSET -8.370511 0.000000 0.000000 
							CHANNELS 3 Zrotation Yrotation Xrotation
							End Site
							{
								OFFSET -4.083176 0.000000 0.000000 
							}
						}
					}
				}
			}
		}
	}
	JOINT lThigh
	{
		OFFSET 5.308129 -1.633274 1.361059 
		CHANNELS 3 Xrotation Zrotation Yrotation
		JOINT lShin
		{
			OFFSET -2.041588 -20.007561 0.000000 
			CHANNELS 3 Xrotation Zrotation Yrotation
			JOINT lFoot
			{
				OFFSET 0.000000 -19.190928 -1.224953 
				CHANNELS 3 Xrotation Yrotation Zrotation
				End Site
				{
					OFFSET 0.000000 -2.449906 4.627600 
				}
			}
		}
	}
	JOINT rThigh
	{
		OFFSET -5.308129 -1.633274 1.361059 
		CHANNELS 3 Xrotation Zrotation Yrotation
		JOINT rShin
		{
			OFFSET 2.041588 -20.007561 0.000000 
			CHANNELS 3 Xrotation Zrotation Yrotation
			JOINT rFoot
			{
				OFFSET 0.000000 -19.190928 -1.224953 
				CHANNELS 3 Xrotation Yrotation Zrotation
				End Site
				{
					OFFSET 0.000000 -2.449906 4.627600 
				}
			}
		}
	}
}
MOTION
Frames: 11
Frame Time: 0.033333
-0.366769 50.790787 1.008536 11.220703 10.000001 -58.154301 58.499306 -9.197787 -20.170063 -14.218750 6.289063 1.827242 51.063168 8.107644 2.471410 -70.830078 -18.876953 38.867188 2.000000 -2.000000 0.000000 -83.261719 -30.468750 -25.878904 -47.947765 -2.016639 -1.922532 -29.371651 40.034473 -73.684334 -2.000000 2.000000 0.000000 56.308594 -21.445313 14.830416 113.598022 -1.198893 -2.980160 -16.752346 -71.334137 5.740037 -26.903467 18.903431 36.660622 25.820139 -4.728615 -2.415154 -7.100310 7.929578 -1.129303 -31.056963 9.051370 -14.310535 8.055896 5.575576 0.422042 8.782589 -11.455472 -5.827726 
-0.761868 50.584209 1.972450 11.230470 9.658203 -58.738590 58.538368 -9.651265 -19.719244 -14.902344 6.660156 2.187500 51.063168 8.107644 2.471410 -69.589844 -19.277342 37.587891 2.000000 -2.000000 0.000000 -81.406250 -31.816408 -29.775391 -45.476986 -1.781524 -1.916728 -29.604269 40.911652 -70.480896 -2.000000 2.000000 0.000000 57.197269 -17.607422 14.391579 112.894646 -1.179958 -2.969287 -14.175143 -73.028816 2.846187 -27.723822 20.094707 36.947468 30.566383 -4.504461 -2.754319 -7.644268 8.667011 0.489809 -32.864090 8.260903 -13.271067 13.850511 5.418243 1.223075 5.175756 -11.192450 -4.168943 
-1.174671 50.402569 2.908524 11.220704 9.306642 -59.334358 58.543636 -10.009778 -19.100716 -15.419922 6.855469 2.529297 51.063168 8.107644 2.471410 -68.710938 -19.609375 36.640625 2.000000 -2.000000 0.000000 -80.146484 -32.958981 -33.193359 -44.427174 -1.996068 -1.737940 -29.696396 41.764915 -68.512863 -2.000000 2.000000 0.000000 58.203129 -14.082032 14.157780 112.367325 -1.160460 -2.968160 -12.062348 -74.277153 0.469069 -28.777462 21.447721 37.195904 35.322609 -4.374038 -3.130764 -6.346636 9.382700 0.909136 -33.985008 7.801869 -11.885124 18.293211 5.350644 1.451903 2.695112 -11.507187 -3.087401 
-1.594564 50.258236 3.833442 11.210938 8.955079 -59.754341 58.363003 -10.396593 -18.494598 -15.937500 7.226563 2.890625 51.063168 8.107644 2.471410 -68.115234 -20.410156 36.611328 2.000000 -2.000000 0.000000 -79.433594 -32.929688 -34.477966 -44.944363 -1.789630 -1.720679 -30.321289 41.599148 -69.843414 -2.000000 2.000000 0.000000 58.740234 -12.158203 13.415914 112.191277 -1.161024 -2.958414 -11.553586 -75.218575 -0.000230 -29.901735 22.927143 37.122440 39.891304 -4.192924 -3.470791 -3.591773 9.417340 1.489856 -34.389221 7.187040 -10.737002 21.265709 5.261532 1.567821 0.615963 -11.782115 -1.710361 
-2.010926 50.229664 4.763961 11.201172 8.789063 -59.959442 58.366268 -10.485886 -18.334408 -16.298828 7.246094 3.028576 51.063168 8.107644 2.471410 -67.685547 -21.181637 37.373047 2.000000 -2.000000 0.000000 -79.062500 -32.646484 -35.102924 -46.715107 -1.923774 -1.839956 -30.741663 41.104469 -72.432510 -2.000000 2.000000 0.000000 58.789063 -12.207031 13.035047 112.718315 -1.181087 -2.949796 -13.147967 -75.311050 1.541214 -31.258186 24.329041 37.004314 43.789707 -3.763753 -3.636642 3.285487 8.815650 1.213387 -33.794701 6.776249 -10.025358 22.322498 5.236302 1.790555 -0.822713 -11.325994 -0.568838 
-2.413102 50.308189 5.716733 11.181642 8.613282 -59.832527 58.178158 -10.609221 -18.167767 -16.474611 7.246094 2.998047 51.063168 8.107644 2.471410 -67.392578 -21.591795 38.046875 2.000000 -2.000000 0.000000 -79.199219 -31.728514 -34.746090 -49.343819 -1.682896 -1.902941 -31.527487 40.436298 -75.320343 -2.000000 2.000000 0.000000 58.281254 -14.052734 12.585521 113.772949 -1.229833 -2.952615 -15.375319 -74.214371 3.791991 -33.191578 26.154697 36.148872 46.570023 -3.705267 -3.742792 15.110625 7.608307 1.261611 -31.809549 6.024096 -9.525286 21.086878 5.274543 1.690979 -1.184770 -11.075969 -0.307289 
-2.790491 50.399040 6.708523 11.025392 8.789063 -59.285618 58.004547 -10.615736 -18.149479 -16.484377 7.080079 2.958984 51.063168 8.107644 2.471410 -66.787109 -21.503904 37.617188 2.000000 -2.000000 0.000000 -81.240234 -30.146484 -32.021484 -53.380711 -1.534307 -2.039018 -32.240864 39.580463 -77.338577 -2.000000 2.000000 0.000000 57.822266 -16.699219 12.265624 115.003365 -1.268830 -2.954871 -16.196173 -73.084717 5.095000 -34.021641 27.229460 34.731262 47.064396 -3.529489 -3.865976 15.180821 8.668707 0.373157 -30.254681 4.960348 -9.532034 20.390976 5.272205 1.650273 -1.518989 -10.471663 0.205455 
-3.132472 50.873543 7.756068 11.025392 8.789063 -58.758274 57.830841 -10.563623 -18.292187 -16.484375 6.904297 2.921096 51.063168 8.107644 2.471410 -65.957031 -21.123045 36.826176 2.000000 -2.000000 0.000000 -83.291016 -27.724611 -28.188135 -58.305637 -1.257268 -2.152966 -33.172031 38.370869 -78.954552 -2.000000 2.000000 0.000000 57.529297 -21.093750 12.744142 116.409554 -1.317576 -2.957690 -14.004742 -72.497826 3.820414 -34.636688 28.421366 31.837927 44.994331 -3.851460 -3.633119 5.856440 10.603160 -0.697965 -28.160393 3.906001 -9.496286 18.623692 5.526604 1.399141 -1.515088 -10.485997 0.409655 
-3.428407 51.285671 8.876072 10.849609 8.974610 -58.045353 57.656857 -10.496488 -18.420887 -16.503908 6.562500 2.841797 51.063168 8.107644 2.471410 -65.136719 -20.917971 36.289063 2.000000 -2.000000 0.000000 -85.849609 -25.517576 -24.970701 -62.168373 -1.278370 -2.347524 -33.152405 37.881443 -79.960854 -2.000000 2.000000 0.000000 57.353516 -26.542969 13.593749 117.642685 -1.156511 -3.036379 -11.777906 -71.310898 2.349086 -34.528957 29.514456 30.219837 41.120380 -3.918950 -3.496120 -1.415255 12.477875 -1.468549 -25.892113 2.694874 -9.644833 16.507307 5.576207 1.190173 -1.535636 -9.541514 0.962270 
-3.667666 51.629066 10.085239 10.849609 8.974610 -57.693787 57.273735 -10.358499 -18.398129 -16.513672 6.396485 2.628042 51.063168 8.107644 2.471410 -64.873047 -20.439451 36.113281 2.000000 -2.000000 0.000000 -88.076172 -23.505859 -22.337879 -64.458641 -1.054591 -2.536553 -32.810806 38.114067 -80.774467 -2.000000 2.000000 0.000000 56.982422 -30.976568 14.179688 118.879623 -1.016811 -3.253021 -9.514922 -70.511673 0.912196 -33.806110 30.041094 29.567179 34.969875 -4.260069 -3.086808 -3.380748 11.671056 -0.908343 -24.185249 1.367502 -10.366814 15.087560 5.341440 1.339841 -1.652436 -8.061188 1.363419 
-3.839645 51.786026 11.400253 10.849609 9.140625 -57.850010 57.100311 -10.300550 -18.530199 -16.533205 6.054688 2.548828 51.063168 8.107644 2.471410 -65.214844 -20.205076 36.699219 2.000000 -2.000000 0.000000 -90.556641 -21.572266 -20.410158 -65.514175 -1.017293 -2.568058 -32.096771 39.145504 -80.781700 -2.000000 2.000000 0.000000 56.640625 -34.101559 15.957031 119.576187 -1.224756 -3.040325 -7.650612 -70.523346 -0.387376 -32.372028 30.787317 29.445013 27.211584 -4.650562 -2.523234 -4.786673 10.325714 -0.826272 -22.752708 0.507959 -10.555494 14.393617 5.068116 0.939587 -2.042165 -6.968366 1.755087 
